<svg width="21" height="31" viewBox="0 0 21 31" fill="none" xmlns="http://www.w3.org/2000/svg">
<path d="M15.2305 10.7695C17.9844 10.7695 20.2109 8.54297 20.2109 5.78906C20.2109 3.03516 17.9844 0.75 15.2305 0.75H5.21094C2.45703 0.75 0.230469 3.03516 0.230469 5.78906C0.230469 8.54297 2.45703 10.7695 5.21094 10.7695C2.45703 10.7695 0.171875 12.9961 0.171875 15.75C0.171875 18.5625 2.45703 20.7891 5.21094 20.7891C2.45703 20.7891 0.171875 23.0156 0.171875 25.7695C0.171875 28.5234 2.45703 30.75 5.21094 30.75C7.96484 30.75 10.1914 28.5234 10.1914 25.7695V10.7695H15.2305ZM15.2305 10.7695C12.418 10.7695 10.1914 12.9961 10.1914 15.75C10.1914 18.5625 12.418 20.7891 15.2305 20.7891C17.9844 20.7891 20.2109 18.5625 20.2109 15.75C20.2109 12.9961 17.9844 10.7695 15.2305 10.7695Z" fill="#F5E7E7"/>
</svg>
