<svg version="1" xmlns="http://www.w3.org/2000/svg" width="346.667" height="346.667" viewBox="0 0 260.000000 260.000000"><path d="M9 67.9c0 1.5 1 1.9 5.1 2.4 6.7.8 9.6 2.8 10.8 7.4 1.4 4.8 1.4 121.1.1 126.8-1.2 5.2-3.7 7.1-10.5 8-4.5.5-5.5 1-5.5 2.6 0 1.8 1 1.9 27 1.9 25.8 0 27-.1 27-1.9 0-1.5-1-2-5.5-2.6-3.6-.4-6.5-1.5-8.3-3l-2.7-2.3-.3-33.2-.3-33.3 4.3.7c9 1.4 9.4 2 34.8 40.5 9.2 14.1 16 25.4 16 26.8 0 2.5-3.1 4.3-7.6 4.3-1.7 0-2.4.5-2.4 2 0 1.9.7 2 24 2 22.5 0 24-.1 24-1.8 0-1.3-1.7-2.5-5.3-4-2.9-1.2-6.9-3.9-8.9-6-5.9-6.1-53.8-74.3-53.1-75.6 3.2-5.3 37.6-48.6 41.1-51.6 4.1-3.6 13.3-8 16.7-8 .8 0 1.5-.9 1.5-2 0-1.9-.7-2-21.5-2-20.4 0-21.5.1-21.5 1.9 0 1.5 1 2 4.6 2.6 8.8 1.3 10.6 6.6 5.4 16.4-1.7 3.1-9.5 13.9-17.4 24.1-15.7 20.4-19.5 23.5-29.6 24.7l-5.1.6.3-30.1.3-30 2.4-2.6c1.8-1.9 3.8-2.7 8.2-3.2 4.9-.5 5.9-1 5.9-2.5 0-1.8-1.3-1.9-27-1.9s-27 .1-27 1.9zM148 69c0 1.7.7 2 4.5 2 6 0 10 2.2 11.4 6.1.8 2.2 1.1 22.2 1.1 64.6 0 65.2-.1 66.7-4.7 69.2-1.1.5-4.3 1.3-7.1 1.7-4.2.5-5.2 1-5.2 2.5 0 1.8 1.3 1.9 29 1.9 27.3 0 29-.1 29-1.8 0-1.5-1.3-2-7.5-2.9-8.5-1.2-11-2.8-12.5-8.2-.5-2-1-15.9-1-31.4V145h8.6c19.4 0 24.3 4.5 26.9 24.3.6 4.2.9 4.8 2.8 4.5 1.5-.2 2.2-1 2.1-2.6 0-1.2-.1-14.8-.2-30.2l-.2-28h-2.3c-2.2 0-2.5.7-4 9.1-1.2 7.1-2.2 10-4.5 12.8-3.8 4.8-7.7 6-19.5 6l-9.8.1.3-32 .3-32 2.8-2.7 2.7-2.8h18.8c18.2 0 18.9.1 23.7 2.6 8.1 4.1 11.4 10.8 13.7 28.1 1.1 8.2 1.3 8.8 3.5 8.8h2.3V93.6c0-9.5.3-19.4.6-22l.7-4.6h-53.2c-52.4 0-53.1 0-53.1 2z"/></svg>