<svg id="b0225cde-a2d2-4693-8ce5-502a1e8a6144" data-name="Layer 1" xmlns="http://www.w3.org/2000/svg" width="1077.38187" height="752.8614" viewBox="0 0 1077.38187 752.8614"><title>learning</title><rect y="42.80999" width="760" height="475" fill="#f2f2f2"/><rect x="20.5" y="63.30999" width="88" height="10" fill="#9a348e"/><rect x="640.5" y="63.30999" width="88" height="10" fill="#fff"/><rect x="20.5" y="80.30999" width="148" height="6" fill="#3f3d56"/><rect x="20.5" y="93.30999" width="140" height="6" fill="#3f3d56"/><rect x="20.5" y="106.30999" width="102" height="6" fill="#3f3d56"/><rect x="335.5" y="144.80999" width="383" height="271" fill="#fff"/><rect x="324.5" y="198.30999" width="383" height="271" fill="#3f3d56"/><ellipse cx="455" cy="681.8614" rx="455" ry="23" fill="#3f3d56"/><ellipse cx="899.33839" cy="721" rx="178.04348" ry="9" fill="#3f3d56"/><path d="M894.39081,547.00164l15.975-11.10408,33.10933-42.6179a5.803,5.803,0,0,0-1.02243-8.1427h0a5.803,5.803,0,0,0-8.1427,1.02243l-33.10933,42.6179Z" transform="translate(-61.30906 -73.5693)" fill="#2f2e41"/><path d="M1036.98725,141.8572s-20.09094-18.01257-47.10979,15.93419-69.2791,50.57374-78.97817,63.73677c0,0,40.18187-16.627,54.03769-23.55489s13.163-5.54233,13.163-5.54233S959.39466,205.594,955.9307,218.757s-.69279,24.24768-6.92791,37.41071,119.16,9.00628,119.16,9.00628,12.47024-21.47652,9.00628-43.64583S1075.78354,144.62836,1036.98725,141.8572Z" transform="translate(-61.30906 -73.5693)" fill="#34212B"/><path d="M997.49816,195.20211s4.84954,33.94675-15.93419,41.56745-13.163,18.01257-13.163,18.01257l31.17559,15.2414,33.254-10.39186,11.08466-16.627s-18.01257-4.15674-13.163-16.627,6.23512-16.627,6.23512-16.627Z" transform="translate(-61.30906 -73.5693)" fill="#ffb9b9"/><path d="M997.49816,195.20211s4.84954,33.94675-15.93419,41.56745-13.163,18.01257-13.163,18.01257l31.17559,15.2414,33.254-10.39186,11.08466-16.627s-18.01257-4.15674-13.163-16.627,6.23512-16.627,6.23512-16.627Z" transform="translate(-61.30906 -73.5693)" opacity="0.1"/><path d="M1084.78982,292.19284s-4.84953,63.73677-3.464,66.50794,0,99.0691,0,99.0691,9.69907,51.95933-2.77117,54.73049-9.69907-58.19444-9.69907-58.19444l-12.47024-80.36375,1.38558-79.671Z" transform="translate(-61.30906 -73.5693)" fill="#ffb9b9"/><path d="M1084.78982,292.19284s-4.84953,63.73677-3.464,66.50794,0,99.0691,0,99.0691,9.69907,51.95933-2.77117,54.73049-9.69907-58.19444-9.69907-58.19444l-12.47024-80.36375,1.38558-79.671Z" transform="translate(-61.30906 -73.5693)" opacity="0.1"/><path d="M949.69558,484.09594s-22.8621,86.59887-22.16931,128.85912,9.69908,101.14749,9.69908,101.14749,1.38558,25.63326-.6928,28.40443,10.39187,14.54861,10.39187,14.54861l13.163-7.6207,4.84953-5.54233V739.043s-7.6207-23.55489-1.38558-42.26025,9.69908-65.81514,3.464-80.36375l42.953-127.47354Z" transform="translate(-61.30906 -73.5693)" fill="#ffb9b9"/><path d="M948.31,745.97093s-8.31349-10.39186-13.85582-6.92791-14.54861,27.01885-14.54861,27.01885-31.17559,29.79-9.00628,31.17559,31.86838-6.23512,34.63955-11.77744,28.40443-20.09094,28.40443-20.09094-2.77117-26.32606-6.92791-27.01885-10.39187,10.39186-10.39187,10.39186Z" transform="translate(-61.30906 -73.5693)" fill="#2f2e41"/><path d="M1025.2098,489.63827v85.90608a265.61637,265.61637,0,0,0,2.07837,31.17559c2.07837,15.24141-11.77744,128.85913-11.77744,128.85913l1.38558,20.09093,17.31977-1.38558,2.07837-17.31977,24.94048-76.207s8.31349-46.417,4.15675-63.73677,21.47652-128.16633,21.47652-128.16633Z" transform="translate(-61.30906 -73.5693)" fill="#ffb9b9"/><path d="M1011.354,750.82047l5.13095-1.1155s3.87533-8.58358,8.72487-6.5052a52.29963,52.29963,0,0,1,9.64308,5.778l2.13437,3.921s4.84953,10.39186,11.08465,17.31977,13.163,22.16932,2.77117,23.5549-24.24769,2.07837-28.40443-1.38558-1.38559-9.00629-5.54233-10.39187-7.6207-5.54233-6.92791-6.92791S1011.354,750.82047,1011.354,750.82047Z" transform="translate(-61.30906 -73.5693)" fill="#2f2e41"/><circle cx="963.90073" cy="114.70489" r="33.25397" fill="#ffb9b9"/><path d="M967.01536,242.31189l9.15108-3.19485s-3.60876,5.966,15.78939,9.43,39.48716,4.69031,48.4944-6.66113c0,0,3.46493-1.65236,8.31446,3.19718s7.6207,3.464,7.6207,3.464l-3.46395,18.01257-6.92791,33.254-9.00628,24.94048-25.63327-5.54233-27.71164-20.09094L973.25048,272.1019V247.16143Z" transform="translate(-61.30906 -73.5693)" fill="#9a348e"/><path d="M1051.53586,252.011l6.92791-4.84954s23.55489,4.15674,24.94047,15.2414l-18.01256,34.63955a39.43665,39.43665,0,0,1-.6928,29.79c-6.92791,15.93419-6.23511,19.39815-6.23511,19.39815l-4.84954,20.78373-87.98445,6.92791s-3.464-8.31349-4.84954-9.69908-1.38558-6.23512,0-6.23512,0-2.07837-1.38558-4.15674-2.07838-2.77117,0-5.54233-3.464-27.71164-3.464-27.71164V293.57842l-23.55489-31.17559s8.31349-12.47024,12.47024-13.85582,23.93018-6.84988,23.93018-6.84988l4.47425,6.588,6.23511,50.14279,9.00629,30.4828,37.921-6.4431,14.73113-24.73249,9.69908-29.09722Z" transform="translate(-61.30906 -73.5693)" fill="#9a348e"/><path d="M1077.86191,258.24608l5.54233,4.15675s4.84954,38.79629,3.464,41.56746-25.63327,5.54233-26.32606,4.15674S1077.86191,258.24608,1077.86191,258.24608Z" transform="translate(-61.30906 -73.5693)" fill="#9a348e"/><path d="M927.52627,300.50633s4.84954,63.73677,3.464,66.50794,0,99.06911,0,99.06911-9.69908,51.95932,2.77116,54.73048,9.69907-58.19444,9.69907-58.19444l12.47024-80.36375-1.38558-79.671Z" transform="translate(-61.30906 -73.5693)" fill="#ffb9b9"/><path d="M963.5514,238.84794l6.92791,45.7242s-6.23512,67.89352-4.84953,81.74934l1.38558,4.15674s-2.77117-1.38558-3.464,1.38558,0,11.77745,0,11.77745-4.15674,4.15675-5.54233,27.01885-18.01256,77.59259-11.77744,79.671,43.64583,12.47024,63.73677,10.39187,92.1412-26.32606,91.44841-32.56118-35.33234-94.21957-35.33234-94.21957-6.23512-10.39187-6.23512-11.77745,8.31349-6.92791,6.23512-12.47024-13.163-63.73677-13.163-63.73677l7.6207-41.56746-10.39187-2.77116-7.6207,40.18188s-29.79,14.54861-60.9656,1.38558l-6.92791-47.10979Z" transform="translate(-61.30906 -73.5693)" fill="#2f2e41"/><path d="M937.91814,260.32446l-5.54233,2.07837s-10.39187,43.64583-7.6207,43.64583,36.02513,4.15675,36.02513,2.77117-6.23512-35.33234-6.23512-35.33234Z" transform="translate(-61.30906 -73.5693)" fill="#9a348e"/><circle cx="826.22371" cy="192.89821" r="1.04263" fill="#f2f2f2"/><circle cx="363.5" cy="248.30999" r="18" fill="#9a348e"/><circle cx="414.5" cy="255.30999" r="2" fill="#f2f2f2"/><circle cx="352.5" cy="310.30999" r="2" fill="#f2f2f2"/><circle cx="389.5" cy="278.30999" r="1" fill="#f2f2f2"/><circle cx="492.5" cy="366.30999" r="1" fill="#f2f2f2"/><circle cx="599.5" cy="350.30999" r="1" fill="#f2f2f2"/><circle cx="583.5" cy="433.30999" r="1" fill="#f2f2f2"/><circle cx="557.5" cy="248.30999" r="1" fill="#f2f2f2"/><circle cx="534.5" cy="309.30999" r="1" fill="#f2f2f2"/><circle cx="369.5" cy="356.30999" r="1" fill="#f2f2f2"/><circle cx="399.5" cy="416.30999" r="1" fill="#f2f2f2"/><circle cx="465.5" cy="333.30999" r="1" fill="#f2f2f2"/><circle cx="632.5" cy="236.30999" r="1" fill="#f2f2f2"/><circle cx="517.5" cy="414.30999" r="1" fill="#f2f2f2"/><circle cx="633.5" cy="279.30999" r="1" fill="#f2f2f2"/><rect x="474.5" y="266.30999" height="5" fill="#f2f2f2"/><rect x="419.5" y="377.30999" height="5" fill="#f2f2f2"/><rect x="582.5" y="285.30999" height="5" fill="#f2f2f2"/><rect x="648.5" y="366.30999" height="5" fill="#f2f2f2"/><polygon points="707.5 236.48 707.5 259.25 438.5 316.31 707.5 236.48" fill="#f2f2f2" opacity="0.1"/><polygon points="561.5 333.31 498.5 363.31 561.5 336.31 561.5 333.31" fill="#f2f2f2" opacity="0.1"/><polygon points="707.5 350.6 661.5 370.31 707.5 348.41 707.5 350.6" fill="#f2f2f2" opacity="0.1"/><line x1="37" y1="92" x2="339" y2="92" fill="none" stroke="#f2f2f2" stroke-miterlimit="10" stroke-width="2"/><line x1="37" y1="185" x2="339" y2="185" fill="none" stroke="#f2f2f2" stroke-miterlimit="10" stroke-width="2"/><line x1="37" y1="259" x2="339" y2="259" fill="none" stroke="#f2f2f2" stroke-miterlimit="10" stroke-width="2"/><line x1="57.5" y1="349.5" x2="322.5" y2="349.5" fill="none" stroke="#3f3d56" stroke-miterlimit="10" stroke-width="2"/><circle cx="42" cy="349" r="16" fill="none" stroke="#3f3d56" stroke-miterlimit="10" stroke-width="2"/><line x1="122.55882" y1="349" x2="122.55882" y2="259" fill="none" stroke="#3f3d56" stroke-miterlimit="10" stroke-width="2"/><circle cx="122.52941" cy="349" r="14.58824" fill="#9a348e"/><circle cx="190" cy="349" r="14.58824" fill="#9a348e"/><circle cx="257.47059" cy="349" r="14.58824" fill="#9a348e"/><circle cx="339" cy="349" r="16" fill="none" stroke="#3f3d56" stroke-miterlimit="10" stroke-width="2"/><circle cx="123" cy="259" r="36" fill="#3f3d56"/><circle cx="190" cy="185" r="36" fill="#3f3d56"/><circle cx="258" cy="92" r="36" fill="#3f3d56"/><circle cx="258" cy="92" r="14" fill="#9a348e"/><circle cx="190" cy="185" r="14" fill="#9a348e"/><circle cx="123" cy="259" r="14" fill="#9a348e"/><circle cx="13" cy="92" r="13" fill="#f2f2f2"/><circle cx="13" cy="184" r="13" fill="#f2f2f2"/><circle cx="13" cy="259" r="13" fill="#f2f2f2"/><path d="M998.88374,159.177s51.26653,35.33234,65.12235,19.39815-24.24768-29.79-24.24768-29.79l-31.86839-3.464Z" transform="translate(-61.30906 -73.5693)" fill="#34212B"/></svg>
